<svg aria-hidden="true" xmlns="http://www.w3.org/2000/svg" overflow="hidden">
  <defs>
     <symbol id="icon-name">
     <path d="M15 16.25C15 15.2033 15 14.68 14.8708 14.2541C14.58 13.2953 13.8297 12.545 12.8709 12.2542C12.445 12.125 11.9217 12.125 10.875 12.125H7.125C6.07833 12.125 5.55499 12.125 5.12914 12.2542C4.17034 12.545 3.42003 13.2953 3.12918 14.2541C3 14.68 3 15.2033 3 16.25M12.375 6.125C12.375 7.98896 10.864 9.5 9 9.5C7.13604 9.5 5.625 7.98896 5.625 6.125C5.625 4.26104 7.13604 2.75 9 2.75C10.864 2.75 12.375 4.26104 12.375 6.125Z" stroke-linecap="round" stroke-linejoin="round"/>
  </symbol>
    <symbol id="icon-password" >
    <path d="M11.75 6.75V4.5C11.75 2.42893 10.0711 0.75 8 0.75C5.92893 0.75 4.25 2.42893 4.25 4.5V6.75M4.85 14.25H11.15C12.4101 14.25 13.0402 14.25 13.5215 14.0048C13.9448 13.789 14.289 13.4448 14.5048 13.0215C14.75 12.5402 14.75 11.9101 14.75 10.65V10.35C14.75 9.08988 14.75 8.45982 14.5048 7.97852C14.289 7.55516 13.9448 7.21095 13.5215 6.99524C13.0402 6.75 12.4101 6.75 11.15 6.75H4.85C3.58988 6.75 2.95982 6.75 2.47852 6.99524C2.05516 7.21095 1.71095 7.55516 1.49524 7.97852C1.25 8.45982 1.25 9.08988 1.25 10.35V10.65C1.25 11.9101 1.25 12.5402 1.49524 13.0215C1.71095 13.4448 2.05516 13.789 2.47852 14.0048C2.95982 14.25 3.58988 14.25 4.85 14.25Z" stroke-linecap="round" stroke-linejoin="round"/>
</symbol>
    <symbol id="icon-email">
    <path d="M0.5 2.75L6.62369 7.03658C7.11957 7.3837 7.36751 7.55726 7.6372 7.62448C7.87542 7.68386 8.12458 7.68386 8.3628 7.62448C8.63249 7.55726 8.88043 7.3837 9.37631 7.03658L15.5 2.75M4.1 12.5H11.9C13.1601 12.5 13.7902 12.5 14.2715 12.2548C14.6948 12.039 15.039 11.6948 15.2548 11.2715C15.5 10.7902 15.5 10.1601 15.5 8.9V4.1C15.5 2.83988 15.5 2.20982 15.2548 1.72852C15.039 1.30516 14.6948 0.96095 14.2715 0.745235C13.7902 0.5 13.1601 0.5 11.9 0.5H4.1C2.83988 0.5 2.20982 0.5 1.72852 0.745235C1.30516 0.96095 0.96095 1.30516 0.745235 1.72852C0.5 2.20982 0.5 2.83988 0.5 4.1V8.9C0.5 10.1601 0.5 10.7902 0.745235 11.2715C0.96095 11.6948 1.30516 12.039 1.72852 12.2548C2.20982 12.5 2.83988 12.5 4.1 12.5Z" stroke-linecap="round" stroke-linejoin="round"/>
</symbol>
  </defs>
</svg>