<svg aria-hidden="true" xmlns="http://www.w3.org/2000/svg" overflow="hidden">
  <defs>
     <symbol id="icon-name">
     <path d="M15 16.25C15 15.2033 15 14.68 14.8708 14.2541C14.58 13.2953 13.8297 12.545 12.8709 12.2542C12.445 12.125 11.9217 12.125 10.875 12.125H7.125C6.07833 12.125 5.55499 12.125 5.12914 12.2542C4.17034 12.545 3.42003 13.2953 3.12918 14.2541C3 14.68 3 15.2033 3 16.25M12.375 6.125C12.375 7.98896 10.864 9.5 9 9.5C7.13604 9.5 5.625 7.98896 5.625 6.125C5.625 4.26104 7.13604 2.75 9 2.75C10.864 2.75 12.375 4.26104 12.375 6.125Z" stroke-linecap="round" stroke-linejoin="round"/>
  </symbol>
    <symbol id="icon-password" >
    <path d="M11.75 6.75V4.5C11.75 2.42893 10.0711 0.75 8 0.75C5.92893 0.75 4.25 2.42893 4.25 4.5V6.75M4.85 14.25H11.15C12.4101 14.25 13.0402 14.25 13.5215 14.0048C13.9448 13.789 14.289 13.4448 14.5048 13.0215C14.75 12.5402 14.75 11.9101 14.75 10.65V10.35C14.75 9.08988 14.75 8.45982 14.5048 7.97852C14.289 7.55516 13.9448 7.21095 13.5215 6.99524C13.0402 6.75 12.4101 6.75 11.15 6.75H4.85C3.58988 6.75 2.95982 6.75 2.47852 6.99524C2.05516 7.21095 1.71095 7.55516 1.49524 7.97852C1.25 8.45982 1.25 9.08988 1.25 10.35V10.65C1.25 11.9101 1.25 12.5402 1.49524 13.0215C1.71095 13.4448 2.05516 13.789 2.47852 14.0048C2.95982 14.25 3.58988 14.25 4.85 14.25Z" stroke-linecap="round" stroke-linejoin="round"/>
</symbol>
    <symbol id="icon-email">
    <path d="M0.5 2.75L6.62369 7.03658C7.11957 7.3837 7.36751 7.55726 7.6372 7.62448C7.87542 7.68386 8.12458 7.68386 8.3628 7.62448C8.63249 7.55726 8.88043 7.3837 9.37631 7.03658L15.5 2.75M4.1 12.5H11.9C13.1601 12.5 13.7902 12.5 14.2715 12.2548C14.6948 12.039 15.039 11.6948 15.2548 11.2715C15.5 10.7902 15.5 10.1601 15.5 8.9V4.1C15.5 2.83988 15.5 2.20982 15.2548 1.72852C15.039 1.30516 14.6948 0.96095 14.2715 0.745235C13.7902 0.5 13.1601 0.5 11.9 0.5H4.1C2.83988 0.5 2.20982 0.5 1.72852 0.745235C1.30516 0.96095 0.96095 1.30516 0.745235 1.72852C0.5 2.20982 0.5 2.83988 0.5 4.1V8.9C0.5 10.1601 0.5 10.7902 0.745235 11.2715C0.96095 11.6948 1.30516 12.039 1.72852 12.2548C2.20982 12.5 2.83988 12.5 4.1 12.5Z" stroke-linecap="round" stroke-linejoin="round"/>
</symbol>
<symbol id="icon-facebook">
<path fill-rule="evenodd" clip-rule="evenodd" d="M20 10.5604C20 5.00473 15.5223 0.5 10 0.5C4.47768 0.5 0 5.00473 0 10.5604C0 15.5816 3.65625 19.7437 8.4375 20.4991V13.4694H5.89777V10.5604H8.4375V8.34397C8.4375 5.82303 9.9308 4.4294 12.2147 4.4294C13.3089 4.4294 14.4536 4.62611 14.4536 4.62611V7.10214H13.192C11.9504 7.10214 11.5621 7.87733 11.5621 8.67408V10.5604H14.3353L13.8924 13.4694H11.5625V20.5C16.3438 19.745 20 15.583 20 10.5604Z"/>
</symbol>
<symbol id="icon-youtube"><path d="M19.8715 3.31202C19.8715 1.55425 18.5784 0.14023 16.9805 0.14023C14.8162 0.0390613 12.6089 0 10.3531 0H9.64989C7.39961 0 5.18839 0.0390614 3.02406 0.140621C1.43011 0.140621 0.136974 1.56246 0.136974 3.32022C0.039305 4.71042 -0.00210647 6.10101 0.000237572 7.49159C-0.00366917 8.88218 0.0406073 10.2741 0.133067 11.6673C0.133067 13.425 1.4262 14.8508 3.02015 14.8508C5.29387 14.9562 7.6262 15.0031 9.99759 14.9992C12.3729 15.007 14.6987 14.9575 16.975 14.8508C18.5729 14.8508 19.866 13.425 19.866 11.6673C19.9598 10.2728 20.0028 8.88218 19.9989 7.48769C20.0077 6.0971 19.9653 4.70521 19.8715 3.31202ZM8.0872 11.3235V3.64795L13.752 7.48378L8.0872 11.3235Z"/>
</symbol>
<symbol id="icon-twitter"><path d="M20 2.39583C19.2498 2.72181 18.456 2.93658 17.6438 3.03333C18.4974 2.53349 19.1393 1.73941 19.4492 0.800006C18.6421 1.27192 17.7606 1.60303 16.8425 1.77917C16.4559 1.37398 15.9909 1.05163 15.4758 0.831733C14.9607 0.611834 14.4063 0.498972 13.8463 0.500007C11.5788 0.500007 9.74375 2.30833 9.74375 4.53749C9.74214 4.84756 9.77767 5.15671 9.84958 5.45832C8.22362 5.3821 6.63147 4.96732 5.17499 4.24052C3.71852 3.51372 2.42979 2.4909 1.39125 1.2375C1.02691 1.85172 0.834222 2.55252 0.833333 3.26666C0.833333 4.66666 1.56375 5.90416 2.66667 6.62915C2.01322 6.61365 1.37316 6.4407 0.800833 6.12499V6.17499C0.800833 8.13332 2.2175 9.76248 4.0925 10.1333C3.73991 10.2273 3.37657 10.2749 3.01167 10.275C2.75274 10.2754 2.4944 10.2503 2.24042 10.2C2.76167 11.8041 4.27875 12.9708 6.07583 13.0041C4.61557 14.1295 2.82276 14.7378 0.979167 14.7333C0.651924 14.7328 0.324986 14.7133 0 14.675C1.87549 15.8726 4.0556 16.506 6.28083 16.5C13.8375 16.5 17.9658 10.3458 17.9658 5.00833C17.9658 4.83333 17.9613 4.65833 17.9529 4.48749C18.7542 3.91752 19.4474 3.20921 20 2.39583Z"/>
</symbol>
<symbol id="icon-instagram"><path d="M14.1665 2.16652C15.2707 2.16982 16.3286 2.60989 17.1094 3.39064C17.8901 4.17138 18.3302 5.22935 18.3335 6.33348V14.6665C18.3302 15.7707 17.8901 16.8286 17.1094 17.6094C16.3286 18.3901 15.2707 18.8302 14.1665 18.8335H5.83348C4.72935 18.8302 3.67138 18.3901 2.89064 17.6094C2.10989 16.8286 1.66982 15.7707 1.66652 14.6665V6.33348C1.66982 5.22935 2.10989 4.17138 2.89064 3.39064C3.67138 2.60989 4.72935 2.16982 5.83348 2.16652H14.1665ZM14.1665 0.5H5.83348C2.625 0.5 0 3.125 0 6.33348V14.6665C0 17.875 2.625 20.5 5.83348 20.5H14.1665C17.375 20.5 20 17.875 20 14.6665V6.33348C20 3.125 17.375 0.5 14.1665 0.5Z"/>
<path d="M15.4165 6.33514C15.1693 6.33514 14.9276 6.26183 14.7221 6.12448C14.5165 5.98713 14.3563 5.79191 14.2617 5.5635C14.1671 5.33509 14.1423 5.08376 14.1905 4.84128C14.2388 4.59881 14.3578 4.37608 14.5326 4.20126C14.7075 4.02645 14.9302 3.90739 15.1727 3.85916C15.4151 3.81093 15.6665 3.83569 15.8949 3.9303C16.1233 4.0249 16.3185 4.18512 16.4559 4.39068C16.5932 4.59624 16.6665 4.83792 16.6665 5.08514C16.6669 5.2494 16.6348 5.4121 16.5721 5.56392C16.5094 5.71573 16.4173 5.85367 16.3012 5.96982C16.185 6.08596 16.0471 6.17802 15.8953 6.24071C15.7435 6.30341 15.5808 6.3355 15.4165 6.33514ZM10 7.16818C10.6593 7.16818 11.3038 7.36368 11.852 7.72997C12.4002 8.09626 12.8274 8.61688 13.0797 9.22599C13.332 9.83511 13.3981 10.5054 13.2694 11.152C13.1408 11.7986 12.8233 12.3926 12.3571 12.8588C11.8909 13.325 11.297 13.6425 10.6503 13.7711C10.0037 13.8997 9.33345 13.8337 8.72433 13.5814C8.11522 13.3291 7.5946 12.9018 7.22831 12.3536C6.86203 11.8055 6.66652 11.161 6.66652 10.5017C6.66747 9.61786 7.01897 8.77052 7.64392 8.14558C8.26886 7.52063 9.1162 7.16912 10 7.16818ZM10 5.50166C9.0111 5.50166 8.0444 5.79491 7.22215 6.34431C6.39991 6.89372 5.75904 7.67461 5.3806 8.58824C5.00217 9.50187 4.90315 10.5072 5.09608 11.4771C5.289 12.447 5.76521 13.3379 6.46447 14.0372C7.16373 14.7365 8.05465 15.2127 9.02455 15.4056C9.99446 15.5985 10.9998 15.4995 11.9134 15.1211C12.827 14.7426 13.6079 14.1018 14.1574 13.2795C14.7068 12.4573 15 11.4906 15 10.5017C15 9.17558 14.4732 7.90381 13.5355 6.96613C12.5979 6.02845 11.3261 5.50166 10 5.50166Z"/>
</symbol>
<symbol id="icon-arrow">
<path d="M1.5 6H13.5M13.5 6L9 1.5M13.5 6L9 10.5" stroke-width="1.5" stroke-linecap="round" stroke-linejoin="round"/>
</symbol>
<symbol id="icon-add-image">
<path d="M56.381 22.8571V13.696C56.3811 12.0826 55.7414 10.535 54.6023 9.39244C53.4631 8.24988 51.9175 7.60557 50.3041 7.60073L41.143 7.5733M56.381 41.1428V50.2857C56.381 51.9022 55.7389 53.4526 54.5958 54.5957C53.4527 55.7387 51.9024 56.3809 50.2858 56.3809H41.143M22.8572 7.5733L13.6961 7.60378C12.0827 7.60862 10.5371 8.25293 9.39792 9.39549C8.2588 10.538 7.61913 12.0856 7.61914 13.699V22.8571M22.8572 56.3809H13.7144C12.0978 56.3809 10.5475 55.7387 9.40439 54.5957C8.26132 53.4526 7.61914 51.9022 7.61914 50.2857V41.1428" stroke="#FAFAFA" fill="var(--main-green)" stroke-linecap="round" stroke-linejoin="round"/>
<path d="M32 37.5C33.25 37.5 34.3127 37.0627 35.188 36.188C36.0627 35.3127 36.5 34.25 36.5 33C36.5 31.75 36.0627 30.6873 35.188 29.812C34.3127 28.9373 33.25 28.5 32 28.5C30.75 28.5 29.6873 28.9373 28.812 29.812C27.9373 30.6873 27.5 31.75 27.5 33C27.5 34.25 27.9373 35.3127 28.812 36.188C29.6873 37.0627 30.75 37.5 32 37.5ZM24 41C23.45 41 22.9793 40.8043 22.588 40.413C22.196 40.021 22 39.55 22 39V27C22 26.45 22.196 25.9793 22.588 25.588C22.9793 25.196 23.45 25 24 25H27.15L29 23H35L36.85 25H40C40.55 25 41.021 25.196 41.413 25.588C41.8043 25.9793 42 26.45 42 27V39C42 39.55 41.8043 40.021 41.413 40.413C41.021 40.8043 40.55 41 40 41H24Z" fill="#FAFAFA"/>
</symbol>
<symbol id="icon-minus">
<path d="M2.1875 7H11.8125" stroke="#333333" stroke-opacity="0.3" stroke-width="1.5" stroke-linecap="round" stroke-linejoin="round"/>
</symbol>
<symbol id="icon-plus">
<path d="M2.1875 7H11.8125" stroke="#8BAA36" stroke-width="1.5" stroke-linecap="round" stroke-linejoin="round"/>
<path d="M7 2.1875V11.8125" stroke="#8BAA36" stroke-width="1.5" stroke-linecap="round" stroke-linejoin="round"/>
</symbol>
<symbol id="icon-exit">
<path d="M14.0625 4.4375L3.9375 14.5625" stroke="#333333" stroke-width="1.5" stroke-linecap="round" stroke-linejoin="round"/>
<path d="M14.0625 14.5625L3.9375 4.4375" stroke="#333333" stroke-width="1.5" stroke-linecap="round" stroke-linejoin="round"/>
</symbol>
<symbol id="icon-clock" viewBox="0 0 14 14">
  <g clip-path="url(#clip0_264_756)">
    <path d="M6.99935 12.8334C10.221 12.8334 12.8327 10.2217 12.8327 7.00002C12.8327 3.77836 10.221 1.16669 6.99935 1.16669C3.77769 1.16669 1.16602 3.77836 1.16602 7.00002C1.16602 10.2217 3.77769 12.8334 6.99935 12.8334Z" stroke="#23262A" stroke-width="1.3" stroke-linecap="round" stroke-linejoin="round"/>
    <path d="M7 3.5V7L9.33333 8.16667" stroke="#23262A" stroke-width="1.3" stroke-linecap="round" stroke-linejoin="round"/>
  </g>
</symbol>
<symbol id="icon-pick-mobile">
<path d="M7.77377 1.01229C8.04472 0.612637 8.58836 0.508303 8.98801 0.779256C9.38767 1.05021 9.492 1.59384 9.22105 1.9935L4.47925 8.98765C4.13243 9.4992 3.37879 9.4992 3.03197 8.98765L0.779622 5.66544C0.508669 5.26578 0.613003 4.72215 1.01266 4.45119C1.41231 4.18024 1.95595 4.28457 2.2269 4.68423L3.75561 6.93907L7.77377 1.01229Z" fill="#8BAA36"/>
</symbol>
<symbol id="icon-pick">
<path d="M13.8928 0.746184C14.4196 -0.0309226 15.4767 -0.233794 16.2538 0.293059C17.0309 0.819911 17.2338 1.87698 16.7069 2.65409L7.48678 16.2538C6.81241 17.2485 5.34699 17.2485 4.67262 16.2538L0.293059 9.79396C-0.233794 9.01686 -0.0309226 7.95979 0.746184 7.43294C1.52329 6.90608 2.58036 7.10896 3.10721 7.88606L6.0797 12.2705L13.8928 0.746184Z" fill="#8BAA36"/>
</symbol>
<symbol id="icon-trash">
<path d="M8.33333 3.49999V3.03332C8.33333 2.37993 8.33333 2.05323 8.20617 1.80367C8.09432 1.58415 7.91584 1.40567 7.69632 1.29382C7.44676 1.16666 7.12006 1.16666 6.46667 1.16666H5.53333C4.87994 1.16666 4.55324 1.16666 4.30368 1.29382C4.08416 1.40567 3.90568 1.58415 3.79383 1.80367C3.66667 2.05323 3.66667 2.37993 3.66667 3.03332V3.49999M4.83333 6.70832V9.62499M7.16667 6.70832V9.62499M0.75 3.49999H11.25M10.0833 3.49999V10.0333C10.0833 11.0134 10.0833 11.5035 9.89259 11.8778C9.72482 12.2071 9.4571 12.4748 9.12782 12.6426C8.75347 12.8333 8.26342 12.8333 7.28333 12.8333H4.71667C3.73657 12.8333 3.24653 12.8333 2.87218 12.6426C2.5429 12.4748 2.27518 12.2071 2.10741 11.8778C1.91667 11.5035 1.91667 11.0134 1.91667 10.0333V3.49999" stroke="#FAFAFA" stroke-width="1.2" stroke-linecap="round" stroke-linejoin="round"/>
</symbol>
<symbol id="icon-pen">
<path d="M1.62669 10.5323C1.67264 10.1188 1.69561 9.91207 1.75816 9.71883C1.81367 9.54739 1.89208 9.38423 1.99129 9.23379C2.10311 9.06422 2.2502 8.91713 2.54438 8.62295L9.91733 1.25001C10.5617 0.605676 11.6063 0.605677 12.2507 1.25001V1.25001C12.895 1.89434 12.895 2.93901 12.2507 3.58334L4.87771 10.9563C4.58353 11.2505 4.43644 11.3976 4.26687 11.5094C4.11643 11.6086 3.95327 11.687 3.78183 11.7425C3.58859 11.8051 3.38184 11.828 2.96835 11.874L1.45898 12.0417L1.62669 10.5323Z" stroke="#23262A" stroke-width="1.3" stroke-linecap="round" stroke-linejoin="round"/>
</symbol>
</defs>
</svg>
